STARTFONT 2.1
FONT -jmk-Neep-Medium-R-SemiCondensed--13-120-75-75-C-60-ISO8859-2
SIZE 12 75 75
FONTBOUNDINGBOX 6 13 0 -2
STARTPROPERTIES 29
FONTNAME_REGISTRY ""
FOUNDRY "jmk"
FAMILY_NAME "Neep"
WEIGHT_NAME "Medium"
SLANT "R"
SETWIDTH_NAME "SemiCondensed"
ADD_STYLE_NAME ""
PIXEL_SIZE 13
POINT_SIZE 120
RESOLUTION_X 75
RESOLUTION_Y 75
SPACING "C"
AVERAGE_WIDTH 60
CHARSET_REGISTRY "ISO8859"
CHARSET_ENCODING "2"
COPYRIGHT "Jim Knoble <jmknoble@pobox.com>"
WEIGHT 110
RESOLUTION 75
X_HEIGHT 6
QUAD_WIDTH 6
FIGURE_WIDTH 6
FONT_ASCENT 11
FONT_DESCENT 2
_XMBDFED_INFO "Edited with xmbdfed 3.7."
RELATIVE_WEIGHT 50
RELATIVE_SETWIDTH 40
CAP_HEIGHT 9
UNDERLINE_POSITION -1
UNDERLINE_THICKNESS 1
ENDPROPERTIES
CHARS 128
STARTCHAR nil
ENCODING 128
SWIDTH 480 0
DWIDTH 6 0
BBX 6 13 0 -2
BITMAP
00
F8
88
88
88
88
88
88
88
88
88
F8
00
ENDCHAR
STARTCHAR nil
ENCODING 129
SWIDTH 480 0
DWIDTH 6 0
BBX 6 13 0 -2
BITMAP
00
F8
88
88
88
88
88
88
88
88
88
F8
00
ENDCHAR
STARTCHAR nil
ENCODING 130
SWIDTH 480 0
DWIDTH 6 0
BBX 6 13 0 -2
BITMAP
00
F8
88
88
88
88
88
88
88
88
88
F8
00
ENDCHAR
STARTCHAR nil
ENCODING 131
SWIDTH 480 0
DWIDTH 6 0
BBX 6 13 0 -2
BITMAP
00
F8
88
88
88
88
88
88
88
88
88
F8
00
ENDCHAR
STARTCHAR nil
ENCODING 132
SWIDTH 480 0
DWIDTH 6 0
BBX 6 13 0 -2
BITMAP
00
F8
88
88
88
88
88
88
88
88
88
F8
00
ENDCHAR
STARTCHAR nil
ENCODING 133
SWIDTH 480 0
DWIDTH 6 0
BBX 6 13 0 -2
BITMAP
00
F8
88
88
88
88
88
88
88
88
88
F8
00
ENDCHAR
STARTCHAR nil
ENCODING 134
SWIDTH 480 0
DWIDTH 6 0
BBX 6 13 0 -2
BITMAP
00
F8
88
88
88
88
88
88
88
88
88
F8
00
ENDCHAR
STARTCHAR nil
ENCODING 135
SWIDTH 480 0
DWIDTH 6 0
BBX 6 13 0 -2
BITMAP
00
F8
88
88
88
88
88
88
88
88
88
F8
00
ENDCHAR
STARTCHAR nil
ENCODING 136
SWIDTH 480 0
DWIDTH 6 0
BBX 6 13 0 -2
BITMAP
00
F8
88
88
88
88
88
88
88
88
88
F8
00
ENDCHAR
STARTCHAR nil
ENCODING 137
SWIDTH 480 0
DWIDTH 6 0
BBX 6 13 0 -2
BITMAP
00
F8
88
88
88
88
88
88
88
88
88
F8
00
ENDCHAR
STARTCHAR nil
ENCODING 138
SWIDTH 480 0
DWIDTH 6 0
BBX 6 13 0 -2
BITMAP
00
F8
88
88
88
88
88
88
88
88
88
F8
00
ENDCHAR
STARTCHAR nil
ENCODING 139
SWIDTH 480 0
DWIDTH 6 0
BBX 6 13 0 -2
BITMAP
00
F8
88
88
88
88
88
88
88
88
88
F8
00
ENDCHAR
STARTCHAR nil
ENCODING 140
SWIDTH 480 0
DWIDTH 6 0
BBX 6 13 0 -2
BITMAP
00
F8
88
88
88
88
88
88
88
88
88
F8
00
ENDCHAR
STARTCHAR nil
ENCODING 141
SWIDTH 480 0
DWIDTH 6 0
BBX 6 13 0 -2
BITMAP
00
F8
88
88
88
88
88
88
88
88
88
F8
00
ENDCHAR
STARTCHAR nil
ENCODING 142
SWIDTH 480 0
DWIDTH 6 0
BBX 6 13 0 -2
BITMAP
00
F8
88
88
88
88
88
88
88
88
88
F8
00
ENDCHAR
STARTCHAR nil
ENCODING 143
SWIDTH 480 0
DWIDTH 6 0
BBX 6 13 0 -2
BITMAP
00
F8
88
88
88
88
88
88
88
88
88
F8
00
ENDCHAR
STARTCHAR nil
ENCODING 144
SWIDTH 480 0
DWIDTH 6 0
BBX 6 13 0 -2
BITMAP
00
F8
88
88
88
88
88
88
88
88
88
F8
00
ENDCHAR
STARTCHAR nil
ENCODING 145
SWIDTH 480 0
DWIDTH 6 0
BBX 6 13 0 -2
BITMAP
00
F8
88
88
88
88
88
88
88
88
88
F8
00
ENDCHAR
STARTCHAR nil
ENCODING 146
SWIDTH 480 0
DWIDTH 6 0
BBX 6 13 0 -2
BITMAP
00
F8
88
88
88
88
88
88
88
88
88
F8
00
ENDCHAR
STARTCHAR nil
ENCODING 147
SWIDTH 480 0
DWIDTH 6 0
BBX 6 13 0 -2
BITMAP
00
F8
88
88
88
88
88
88
88
88
88
F8
00
ENDCHAR
STARTCHAR nil
ENCODING 148
SWIDTH 480 0
DWIDTH 6 0
BBX 6 13 0 -2
BITMAP
00
F8
88
88
88
88
88
88
88
88
88
F8
00
ENDCHAR
STARTCHAR nil
ENCODING 149
SWIDTH 480 0
DWIDTH 6 0
BBX 6 13 0 -2
BITMAP
00
F8
88
88
88
88
88
88
88
88
88
F8
00
ENDCHAR
STARTCHAR nil
ENCODING 150
SWIDTH 480 0
DWIDTH 6 0
BBX 6 13 0 -2
BITMAP
00
F8
88
88
88
88
88
88
88
88
88
F8
00
ENDCHAR
STARTCHAR nil
ENCODING 151
SWIDTH 480 0
DWIDTH 6 0
BBX 6 13 0 -2
BITMAP
00
F8
88
88
88
88
88
88
88
88
88
F8
00
ENDCHAR
STARTCHAR nil
ENCODING 152
SWIDTH 480 0
DWIDTH 6 0
BBX 6 13 0 -2
BITMAP
00
F8
88
88
88
88
88
88
88
88
88
F8
00
ENDCHAR
STARTCHAR nil
ENCODING 153
SWIDTH 480 0
DWIDTH 6 0
BBX 6 13 0 -2
BITMAP
00
F8
88
88
88
88
88
88
88
88
88
F8
00
ENDCHAR
STARTCHAR nil
ENCODING 154
SWIDTH 480 0
DWIDTH 6 0
BBX 6 13 0 -2
BITMAP
00
F8
88
88
88
88
88
88
88
88
88
F8
00
ENDCHAR
STARTCHAR nil
ENCODING 155
SWIDTH 480 0
DWIDTH 6 0
BBX 6 13 0 -2
BITMAP
00
F8
88
88
88
88
88
88
88
88
88
F8
00
ENDCHAR
STARTCHAR nil
ENCODING 156
SWIDTH 480 0
DWIDTH 6 0
BBX 6 13 0 -2
BITMAP
00
F8
88
88
88
88
88
88
88
88
88
F8
00
ENDCHAR
STARTCHAR nil
ENCODING 157
SWIDTH 480 0
DWIDTH 6 0
BBX 6 13 0 -2
BITMAP
00
F8
88
88
88
88
88
88
88
88
88
F8
00
ENDCHAR
STARTCHAR nil
ENCODING 158
SWIDTH 480 0
DWIDTH 6 0
BBX 6 13 0 -2
BITMAP
00
F8
88
88
88
88
88
88
88
88
88
F8
00
ENDCHAR
STARTCHAR nil
ENCODING 159
SWIDTH 480 0
DWIDTH 6 0
BBX 6 13 0 -2
BITMAP
00
F8
88
88
88
88
88
88
88
88
88
F8
00
ENDCHAR
STARTCHAR U+00a0 no-break space
ENCODING 160
SWIDTH 480 0
DWIDTH 6 0
BBX 6 13 0 -2
BITMAP
00
00
00
00
00
00
00
00
00
00
00
00
00
ENDCHAR
STARTCHAR U+0104 latin captial letter A with ogonek
ENCODING 161
SWIDTH 480 0
DWIDTH 6 0
BBX 6 13 0 -2
BITMAP
00
00
70
88
88
88
F8
88
88
88
88
10
0C
ENDCHAR
STARTCHAR U+02d8 breve
ENCODING 162
SWIDTH 480 0
DWIDTH 6 0
BBX 6 13 0 -2
BITMAP
00
88
88
70
00
00
00
00
00
00
00
00
00
ENDCHAR
STARTCHAR U+0141 latin capital letter L with stroke
ENCODING 163
SWIDTH 480 0
DWIDTH 6 0
BBX 6 13 0 -2
BITMAP
00
00
40
40
50
60
C0
40
40
40
7C
00
00
ENDCHAR
STARTCHAR U+00a4 currency sign
ENCODING 164
SWIDTH 480 0
DWIDTH 6 0
BBX 6 13 0 -2
BITMAP
00
00
00
00
88
70
88
88
88
70
88
00
00
ENDCHAR
STARTCHAR U+013d latin capital letter L with caron
ENCODING 165
SWIDTH 480 0
DWIDTH 6 0
BBX 6 13 0 -2
BITMAP
00
90
60
00
80
80
80
80
80
80
F8
00
00
ENDCHAR
STARTCHAR U+015a latin capital letter S with acute
ENCODING 166
SWIDTH 480 0
DWIDTH 6 0
BBX 6 13 0 -2
BITMAP
00
30
40
00
70
88
80
70
08
88
70
00
00
ENDCHAR
STARTCHAR U+00a7 section sign
ENCODING 167
SWIDTH 480 0
DWIDTH 6 0
BBX 6 13 0 -2
BITMAP
00
38
40
40
30
48
48
30
08
08
70
00
00
ENDCHAR
STARTCHAR U+00a8 diaresis
ENCODING 168
SWIDTH 480 0
DWIDTH 6 0
BBX 6 13 0 -2
BITMAP
00
00
50
50
00
00
00
00
00
00
00
00
00
ENDCHAR
STARTCHAR U+0160 latin capital letter S with caron
ENCODING 169
SWIDTH 480 0
DWIDTH 6 0
BBX 6 13 0 -2
BITMAP
00
48
30
00
70
88
80
70
08
88
70
00
00
ENDCHAR
STARTCHAR U+015e latin capital letter S with cedilla
ENCODING 170
SWIDTH 480 0
DWIDTH 6 0
BBX 6 13 0 -2
BITMAP
00
00
70
88
80
80
70
08
08
88
70
10
60
ENDCHAR
STARTCHAR U+0164 latin capital letter T with caron
ENCODING 171
SWIDTH 480 0
DWIDTH 6 0
BBX 6 13 0 -2
BITMAP
00
48
30
00
F8
20
20
20
20
20
20
00
00
ENDCHAR
STARTCHAR U+0179 latin capital letter Z with acute
ENCODING 172
SWIDTH 480 0
DWIDTH 6 0
BBX 6 13 0 -2
BITMAP
00
30
40
00
F8
08
10
20
40
80
F8
00
00
ENDCHAR
STARTCHAR U+00ad soft hyphen
ENCODING 173
SWIDTH 480 0
DWIDTH 6 0
BBX 6 13 0 -2
BITMAP
00
00
00
00
00
00
70
00
00
00
00
00
00
ENDCHAR
STARTCHAR U+017d latin capital letter Z with caron
ENCODING 174
SWIDTH 480 0
DWIDTH 6 0
BBX 6 13 0 -2
BITMAP
00
48
30
00
F8
08
10
20
40
80
F8
00
00
ENDCHAR
STARTCHAR U+017b latin capital letter Z with dot above
ENCODING 175
SWIDTH 480 0
DWIDTH 6 0
BBX 6 13 0 -2
BITMAP
00
20
20
00
F8
08
10
20
40
80
F8
00
00
ENDCHAR
STARTCHAR U+00b0 degree sign
ENCODING 176
SWIDTH 480 0
DWIDTH 6 0
BBX 6 13 0 -2
BITMAP
00
00
30
48
48
30
00
00
00
00
00
00
00
ENDCHAR
STARTCHAR U+0105 latin small letter a with ogonek
ENCODING 177
SWIDTH 480 0
DWIDTH 6 0
BBX 6 13 0 -2
BITMAP
00
00
00
00
00
70
08
78
88
98
68
10
0C
ENDCHAR
STARTCHAR U+02db ogonek
ENCODING 178
SWIDTH 480 0
DWIDTH 6 0
BBX 6 13 0 -2
BITMAP
00
00
00
00
00
00
00
00
00
00
10
20
18
ENDCHAR
STARTCHAR U+0142 latin small letter l with stroke
ENCODING 179
SWIDTH 480 0
DWIDTH 6 0
BBX 6 13 0 -2
BITMAP
00
00
40
40
50
60
C0
40
40
40
30
00
00
ENDCHAR
STARTCHAR U+00b4 acute accent
ENCODING 180
SWIDTH 480 0
DWIDTH 6 0
BBX 6 13 0 -2
BITMAP
00
00
30
40
00
00
00
00
00
00
00
00
00
ENDCHAR
STARTCHAR U+013e latin small letter l with caron
ENCODING 181
SWIDTH 480 0
DWIDTH 6 0
BBX 6 13 0 -2
BITMAP
00
90
60
00
40
40
40
40
40
40
30
00
00
ENDCHAR
STARTCHAR U+015b latin small letter s with acute
ENCODING 182
SWIDTH 480 0
DWIDTH 6 0
BBX 6 13 0 -2
BITMAP
00
00
30
40
00
70
88
60
10
88
70
00
00
ENDCHAR
STARTCHAR U+02c7 caron
ENCODING 183
SWIDTH 480 0
DWIDTH 6 0
BBX 6 13 0 -2
BITMAP
00
00
48
30
00
00
00
00
00
00
00
00
00
ENDCHAR
STARTCHAR U+00b8 cedilla
ENCODING 184
SWIDTH 480 0
DWIDTH 6 0
BBX 6 13 0 -2
BITMAP
00
00
00
00
00
00
00
00
00
00
20
10
60
ENDCHAR
STARTCHAR U+0161 latin small letter s with caron
ENCODING 185
SWIDTH 480 0
DWIDTH 6 0
BBX 6 13 0 -2
BITMAP
00
00
48
30
00
70
88
60
10
88
70
00
00
ENDCHAR
STARTCHAR U+015f latin small letter s with cedilla
ENCODING 186
SWIDTH 480 0
DWIDTH 6 0
BBX 6 13 0 -2
BITMAP
00
00
00
00
00
70
88
60
10
88
70
10
60
ENDCHAR
STARTCHAR U+0165 latin small letter t with caron
ENCODING 187
SWIDTH 480 0
DWIDTH 6 0
BBX 6 13 0 -2
BITMAP
00
90
60
00
40
F0
40
40
40
48
30
00
00
ENDCHAR
STARTCHAR U+017a latin small letter z with acute
ENCODING 188
SWIDTH 480 0
DWIDTH 6 0
BBX 6 13 0 -2
BITMAP
00
00
30
40
00
F8
08
10
20
40
F8
00
00
ENDCHAR
STARTCHAR U+02dd double acute accent
ENCODING 189
SWIDTH 480 0
DWIDTH 6 0
BBX 6 13 0 -2
BITMAP
00
00
48
90
00
00
00
00
00
00
00
00
00
ENDCHAR
STARTCHAR U+017e latin small letter z with caron
ENCODING 190
SWIDTH 480 0
DWIDTH 6 0
BBX 6 13 0 -2
BITMAP
00
00
48
30
00
F8
08
10
20
40
F8
00
00
ENDCHAR
STARTCHAR U+017c latin small letter z with dot above
ENCODING 191
SWIDTH 480 0
DWIDTH 6 0
BBX 6 13 0 -2
BITMAP
00
00
20
20
00
F8
08
10
20
40
F8
00
00
ENDCHAR
STARTCHAR U+0154 latin capital letter R with acute
ENCODING 192
SWIDTH 480 0
DWIDTH 6 0
BBX 6 13 0 -2
BITMAP
00
30
40
00
F0
88
88
F0
A0
90
88
00
00
ENDCHAR
STARTCHAR U+00c1 latin capital letter A with acute
ENCODING 193
SWIDTH 480 0
DWIDTH 6 0
BBX 6 13 0 -2
BITMAP
00
30
40
00
70
88
88
F8
88
88
88
00
00
ENDCHAR
STARTCHAR U+00c2 latin capital letter A with circumflex
ENCODING 194
SWIDTH 480 0
DWIDTH 6 0
BBX 6 13 0 -2
BITMAP
00
30
48
00
70
88
88
F8
88
88
88
00
00
ENDCHAR
STARTCHAR U+0102 latin capital letter A with breve
ENCODING 195
SWIDTH 480 0
DWIDTH 6 0
BBX 6 13 0 -2
BITMAP
88
88
70
00
70
88
88
F8
88
88
88
00
00
ENDCHAR
STARTCHAR U+00c4 latin capital letter A with diaresis
ENCODING 196
SWIDTH 480 0
DWIDTH 6 0
BBX 6 13 0 -2
BITMAP
00
50
50
00
70
88
88
F8
88
88
88
00
00
ENDCHAR
STARTCHAR U+0139 latin capital letter L with acute
ENCODING 197
SWIDTH 480 0
DWIDTH 6 0
BBX 6 13 0 -2
BITMAP
00
60
80
00
80
80
80
80
80
80
F8
00
00
ENDCHAR
STARTCHAR U+0106 latin capital letter C with acute
ENCODING 198
SWIDTH 480 0
DWIDTH 6 0
BBX 6 13 0 -2
BITMAP
00
30
40
00
70
88
80
80
80
88
70
00
00
ENDCHAR
STARTCHAR U+00c7 latin capital letter C with cedilla
ENCODING 199
SWIDTH 480 0
DWIDTH 6 0
BBX 6 13 0 -2
BITMAP
00
00
70
88
80
80
80
80
80
88
70
10
60
ENDCHAR
STARTCHAR U+010c latin capital letter C with caron
ENCODING 200
SWIDTH 480 0
DWIDTH 6 0
BBX 6 13 0 -2
BITMAP
00
48
30
00
70
88
80
80
80
88
70
00
00
ENDCHAR
STARTCHAR U+00c9 latin capital letter E with acute
ENCODING 201
SWIDTH 480 0
DWIDTH 6 0
BBX 6 13 0 -2
BITMAP
00
30
40
00
F8
80
80
F0
80
80
F8
00
00
ENDCHAR
STARTCHAR U+0118 latin capital letter E with ogonek
ENCODING 202
SWIDTH 480 0
DWIDTH 6 0
BBX 6 13 0 -2
BITMAP
00
00
F8
80
80
80
F0
80
80
80
F8
20
18
ENDCHAR
STARTCHAR U+00cb latin capital letter E with diaresis
ENCODING 203
SWIDTH 480 0
DWIDTH 6 0
BBX 6 13 0 -2
BITMAP
00
50
50
00
F8
80
80
F0
80
80
F8
00
00
ENDCHAR
STARTCHAR U+011a latin capital letter E with caron
ENCODING 204
SWIDTH 480 0
DWIDTH 6 0
BBX 6 13 0 -2
BITMAP
00
48
30
00
F8
80
80
F0
80
80
F8
00
00
ENDCHAR
STARTCHAR U+00cd latin capital letter I with acute
ENCODING 205
SWIDTH 480 0
DWIDTH 6 0
BBX 6 13 0 -2
BITMAP
00
30
40
00
70
20
20
20
20
20
70
00
00
ENDCHAR
STARTCHAR U+00ce latin capital letter I with circumflex
ENCODING 206
SWIDTH 480 0
DWIDTH 6 0
BBX 6 13 0 -2
BITMAP
00
30
48
00
70
20
20
20
20
20
70
00
00
ENDCHAR
STARTCHAR U+010e latin capital letter D with caron
ENCODING 207
SWIDTH 480 0
DWIDTH 6 0
BBX 6 13 0 -2
BITMAP
00
90
60
00
E0
90
88
88
88
90
E0
00
00
ENDCHAR
STARTCHAR U+0110 latin capital letter D with stroke
ENCODING 208
SWIDTH 480 0
DWIDTH 6 0
BBX 6 13 0 -2
BITMAP
00
00
70
48
44
44
E4
44
44
48
70
00
00
ENDCHAR
STARTCHAR U+0143 latin capital letter N with acute
ENCODING 209
SWIDTH 480 0
DWIDTH 6 0
BBX 6 13 0 -2
BITMAP
00
30
40
00
88
88
C8
A8
98
88
88
00
00
ENDCHAR
STARTCHAR U+0147 latin capital letter N with caron
ENCODING 210
SWIDTH 480 0
DWIDTH 6 0
BBX 6 13 0 -2
BITMAP
00
48
30
00
88
88
C8
A8
98
88
88
00
00
ENDCHAR
STARTCHAR U+00d3 latin capital letter O with acute
ENCODING 211
SWIDTH 480 0
DWIDTH 6 0
BBX 6 13 0 -2
BITMAP
00
30
40
00
70
88
88
88
88
88
70
00
00
ENDCHAR
STARTCHAR U+00d4 latin capital letter O with circumflex
ENCODING 212
SWIDTH 480 0
DWIDTH 6 0
BBX 6 13 0 -2
BITMAP
00
30
48
00
70
88
88
88
88
88
70
00
00
ENDCHAR
STARTCHAR U+0150 latin capital letter O with double acute
ENCODING 213
SWIDTH 480 0
DWIDTH 6 0
BBX 6 13 0 -2
BITMAP
00
48
90
00
70
88
88
88
88
88
70
00
00
ENDCHAR
STARTCHAR U+00d6 latin capital letter O with diaresis
ENCODING 214
SWIDTH 480 0
DWIDTH 6 0
BBX 6 13 0 -2
BITMAP
00
50
50
00
70
88
88
88
88
88
70
00
00
ENDCHAR
STARTCHAR U+00d7 multiplication sign
ENCODING 215
SWIDTH 480 0
DWIDTH 6 0
BBX 6 13 0 -2
BITMAP
00
00
00
00
88
50
20
50
88
00
00
00
00
ENDCHAR
STARTCHAR U+0158 latin capital letter R with caron
ENCODING 216
SWIDTH 480 0
DWIDTH 6 0
BBX 6 13 0 -2
BITMAP
00
48
30
00
F0
88
88
F0
A0
90
88
00
00
ENDCHAR
STARTCHAR U+016e latin capital letter U with ring above
ENCODING 217
SWIDTH 480 0
DWIDTH 6 0
BBX 6 13 0 -2
BITMAP
00
20
50
20
88
88
88
88
88
88
70
00
00
ENDCHAR
STARTCHAR U+00da latin capital letter U with acute
ENCODING 218
SWIDTH 480 0
DWIDTH 6 0
BBX 6 13 0 -2
BITMAP
00
30
40
00
88
88
88
88
88
88
70
00
00
ENDCHAR
STARTCHAR U+0170 latin capital letter U with double acute
ENCODING 219
SWIDTH 480 0
DWIDTH 6 0
BBX 6 13 0 -2
BITMAP
00
48
90
00
88
88
88
88
88
88
70
00
00
ENDCHAR
STARTCHAR U+00dc latin capital letter U with diaresis
ENCODING 220
SWIDTH 480 0
DWIDTH 6 0
BBX 6 13 0 -2
BITMAP
00
50
50
00
88
88
88
88
88
88
70
00
00
ENDCHAR
STARTCHAR U+00dd latin capital letter Y with acute
ENCODING 221
SWIDTH 480 0
DWIDTH 6 0
BBX 6 13 0 -2
BITMAP
00
30
40
00
88
88
88
70
20
20
20
00
00
ENDCHAR
STARTCHAR U+0162 latin capital letter T with cedilla
ENCODING 222
SWIDTH 480 0
DWIDTH 6 0
BBX 6 13 0 -2
BITMAP
00
00
F8
20
20
20
20
20
20
20
20
10
60
ENDCHAR
STARTCHAR U+00df latin small letter sharp s
ENCODING 223
SWIDTH 480 0
DWIDTH 6 0
BBX 6 13 0 -2
BITMAP
00
00
60
90
90
A0
A0
90
88
88
B0
80
00
ENDCHAR
STARTCHAR U+0155 latin small letter r with acute
ENCODING 224
SWIDTH 480 0
DWIDTH 6 0
BBX 6 13 0 -2
BITMAP
00
00
30
40
00
B0
C8
80
80
80
80
00
00
ENDCHAR
STARTCHAR U+00e1 latin small letter a with acute
ENCODING 225
SWIDTH 480 0
DWIDTH 6 0
BBX 6 13 0 -2
BITMAP
00
00
30
40
00
70
08
78
88
98
68
00
00
ENDCHAR
STARTCHAR U+00e2 latin small letter a with circumflex
ENCODING 226
SWIDTH 480 0
DWIDTH 6 0
BBX 6 13 0 -2
BITMAP
00
00
30
48
00
70
08
78
88
98
68
00
00
ENDCHAR
STARTCHAR U+0103 latin small letter a with breve
ENCODING 227
SWIDTH 480 0
DWIDTH 6 0
BBX 6 13 0 -2
BITMAP
00
88
88
70
00
70
08
78
88
98
68
00
00
ENDCHAR
STARTCHAR U+00e4 latin small letter a with diaresis
ENCODING 228
SWIDTH 480 0
DWIDTH 6 0
BBX 6 13 0 -2
BITMAP
00
00
50
50
00
70
08
78
88
98
68
00
00
ENDCHAR
STARTCHAR U+013a latin small letter l with acute
ENCODING 229
SWIDTH 480 0
DWIDTH 6 0
BBX 6 13 0 -2
BITMAP
00
30
40
00
40
40
40
40
40
40
30
00
00
ENDCHAR
STARTCHAR U+0107 latin small letter c with acute
ENCODING 230
SWIDTH 480 0
DWIDTH 6 0
BBX 6 13 0 -2
BITMAP
00
00
30
40
00
70
88
80
80
88
70
00
00
ENDCHAR
STARTCHAR U+00e7 latin small letter c with cedilla
ENCODING 231
SWIDTH 480 0
DWIDTH 6 0
BBX 6 13 0 -2
BITMAP
00
00
00
00
00
70
88
80
80
88
70
10
60
ENDCHAR
STARTCHAR U+010d latin small letter c with caron
ENCODING 232
SWIDTH 480 0
DWIDTH 6 0
BBX 6 13 0 -2
BITMAP
00
00
48
30
00
70
88
80
80
88
70
00
00
ENDCHAR
STARTCHAR U+00e9 latin small letter e with acute
ENCODING 233
SWIDTH 480 0
DWIDTH 6 0
BBX 6 13 0 -2
BITMAP
00
00
30
40
00
70
88
F8
80
88
70
00
00
ENDCHAR
STARTCHAR U+0119 latin small letter e with ogonek
ENCODING 234
SWIDTH 480 0
DWIDTH 6 0
BBX 6 13 0 -2
BITMAP
00
00
00
00
00
70
88
F8
80
88
70
20
18
ENDCHAR
STARTCHAR U+00eb latin small letter e with diaresis
ENCODING 235
SWIDTH 480 0
DWIDTH 6 0
BBX 6 13 0 -2
BITMAP
00
00
50
50
00
70
88
F8
80
88
70
00
00
ENDCHAR
STARTCHAR U+011b latin small letter e with caron
ENCODING 236
SWIDTH 480 0
DWIDTH 6 0
BBX 6 13 0 -2
BITMAP
00
00
48
30
00
70
88
F8
80
88
70
00
00
ENDCHAR
STARTCHAR U+00ed latin small letter i with acute
ENCODING 237
SWIDTH 480 0
DWIDTH 6 0
BBX 6 13 0 -2
BITMAP
00
00
30
40
00
60
20
20
20
20
20
00
00
ENDCHAR
STARTCHAR U+00ee latin small letter i with circumflex
ENCODING 238
SWIDTH 480 0
DWIDTH 6 0
BBX 6 13 0 -2
BITMAP
00
00
30
48
00
60
20
20
20
20
20
00
00
ENDCHAR
STARTCHAR U+010f latin small letter d with caron
ENCODING 239
SWIDTH 480 0
DWIDTH 6 0
BBX 6 13 0 -2
BITMAP
00
90
60
08
08
68
98
88
88
98
68
00
00
ENDCHAR
STARTCHAR U+0111 latin small letter d with stroke
ENCODING 240
SWIDTH 480 0
DWIDTH 6 0
BBX 6 13 0 -2
BITMAP
00
00
08
3C
08
68
98
88
88
98
68
00
00
ENDCHAR
STARTCHAR U+0144 latin small letter n with acute
ENCODING 241
SWIDTH 480 0
DWIDTH 6 0
BBX 6 13 0 -2
BITMAP
00
00
30
40
00
B0
C8
88
88
88
88
00
00
ENDCHAR
STARTCHAR U+0148 latin small letter n with caron
ENCODING 242
SWIDTH 480 0
DWIDTH 6 0
BBX 6 13 0 -2
BITMAP
00
00
48
30
00
B0
C8
88
88
88
88
00
00
ENDCHAR
STARTCHAR U+00f3 latin small letter o with acute
ENCODING 243
SWIDTH 480 0
DWIDTH 6 0
BBX 6 13 0 -2
BITMAP
00
00
30
40
00
70
88
88
88
88
70
00
00
ENDCHAR
STARTCHAR U+00f4 latin small letter o with circumflex
ENCODING 244
SWIDTH 480 0
DWIDTH 6 0
BBX 6 13 0 -2
BITMAP
00
00
30
48
00
70
88
88
88
88
70
00
00
ENDCHAR
STARTCHAR U+0151 latin small letter o with double acute
ENCODING 245
SWIDTH 480 0
DWIDTH 6 0
BBX 6 13 0 -2
BITMAP
00
00
48
90
00
70
88
88
88
88
70
00
00
ENDCHAR
STARTCHAR U+00f6 latin small letter o with diaresis
ENCODING 246
SWIDTH 480 0
DWIDTH 6 0
BBX 6 13 0 -2
BITMAP
00
00
50
50
00
70
88
88
88
88
70
00
00
ENDCHAR
STARTCHAR U+00f7 division sign
ENCODING 247
SWIDTH 480 0
DWIDTH 6 0
BBX 6 13 0 -2
BITMAP
00
00
00
20
20
00
F8
00
20
20
00
00
00
ENDCHAR
STARTCHAR U+0159 latin small letter r with caron
ENCODING 248
SWIDTH 480 0
DWIDTH 6 0
BBX 6 13 0 -2
BITMAP
00
00
48
30
00
B0
C8
80
80
80
80
00
00
ENDCHAR
STARTCHAR U+016f latin small letter u with ring above
ENCODING 249
SWIDTH 480 0
DWIDTH 6 0
BBX 6 13 0 -2
BITMAP
00
20
50
20
00
88
88
88
88
98
68
00
00
ENDCHAR
STARTCHAR U+00fa latin small letter u with acute
ENCODING 250
SWIDTH 480 0
DWIDTH 6 0
BBX 6 13 0 -2
BITMAP
00
00
30
40
00
88
88
88
88
98
68
00
00
ENDCHAR
STARTCHAR U+0171 latin small letter u with double acute
ENCODING 251
SWIDTH 480 0
DWIDTH 6 0
BBX 6 13 0 -2
BITMAP
00
00
48
90
00
88
88
88
88
98
68
00
00
ENDCHAR
STARTCHAR U+00fc latin small letter u with diaresis
ENCODING 252
SWIDTH 480 0
DWIDTH 6 0
BBX 6 13 0 -2
BITMAP
00
00
50
50
00
88
88
88
88
98
68
00
00
ENDCHAR
STARTCHAR U+00fd latin small letter y with acute
ENCODING 253
SWIDTH 480 0
DWIDTH 6 0
BBX 6 13 0 -2
BITMAP
00
00
30
40
00
88
88
88
98
68
08
88
70
ENDCHAR
STARTCHAR U+0163 latin small letter t with cedilla
ENCODING 254
SWIDTH 480 0
DWIDTH 6 0
BBX 6 13 0 -2
BITMAP
00
00
00
40
40
F0
40
40
40
48
30
08
30
ENDCHAR
STARTCHAR U+02d9 dot above
ENCODING 255
SWIDTH 480 0
DWIDTH 6 0
BBX 6 13 0 -2
BITMAP
00
00
20
20
00
00
00
00
00
00
00
00
00
ENDCHAR
ENDFONT
